solid OpenSCAD_Model
  facet normal 0 0 1
    outer loop
      vertex 110 65 40.2
      vertex 108 63 40.2
      vertex 110 0 40.2
    endloop
  endfacet
  facet normal 0 0 1
    outer loop
      vertex 110 65 40.2
      vertex 2 63 40.2
      vertex 108 63 40.2
    endloop
  endfacet
  facet normal 0 0 1
    outer loop
      vertex 2 63 40.2
      vertex 0 65 40.2
      vertex 2 2 40.2
    endloop
  endfacet
  facet normal -0 0 1
    outer loop
      vertex 0 65 40.2
      vertex 2 63 40.2
      vertex 110 65 40.2
    endloop
  endfacet
  facet normal -0 0 1
    outer loop
      vertex 108 2 40.2
      vertex 110 0 40.2
      vertex 108 63 40.2
    endloop
  endfacet
  facet normal -0 0 1
    outer loop
      vertex 2 2 40.2
      vertex 110 0 40.2
      vertex 108 2 40.2
    endloop
  endfacet
  facet normal 0 0 1
    outer loop
      vertex 2 2 40.2
      vertex 0 0 40.2
      vertex 110 0 40.2
    endloop
  endfacet
  facet normal 0 0 1
    outer loop
      vertex 0 0 40.2
      vertex 2 2 40.2
      vertex 0 65 40.2
    endloop
  endfacet
  facet normal 0 1 -0
    outer loop
      vertex 110 65 0
      vertex 0 65 40.2
      vertex 110 65 40.2
    endloop
  endfacet
  facet normal 0 1 0
    outer loop
      vertex 0 65 40.2
      vertex 110 65 0
      vertex 0 65 0
    endloop
  endfacet
  facet normal -1 0 0
    outer loop
      vertex 0 0 0
      vertex 0 65 40.2
      vertex 0 65 0
    endloop
  endfacet
  facet normal -1 -0 0
    outer loop
      vertex 0 65 40.2
      vertex 0 0 0
      vertex 0 0 40.2
    endloop
  endfacet
  facet normal 0 -1 0
    outer loop
      vertex 0 0 0
      vertex 110 0 40.2
      vertex 0 0 40.2
    endloop
  endfacet
  facet normal 0 -1 -0
    outer loop
      vertex 110 0 40.2
      vertex 0 0 0
      vertex 110 0 0
    endloop
  endfacet
  facet normal 1 -0 0
    outer loop
      vertex 110 0 40.2
      vertex 110 65 0
      vertex 110 65 40.2
    endloop
  endfacet
  facet normal 1 0 0
    outer loop
      vertex 110 65 0
      vertex 110 0 40.2
      vertex 110 0 0
    endloop
  endfacet
  facet normal 1 -0 0
    outer loop
      vertex 2 2 40.2
      vertex 2 63 2
      vertex 2 63 40.2
    endloop
  endfacet
  facet normal 1 0 0
    outer loop
      vertex 2 63 2
      vertex 2 2 40.2
      vertex 2 2 2
    endloop
  endfacet
  facet normal 0 -1 0
    outer loop
      vertex 2 63 2
      vertex 108 63 40.2
      vertex 2 63 40.2
    endloop
  endfacet
  facet normal 0 -1 -0
    outer loop
      vertex 108 63 40.2
      vertex 2 63 2
      vertex 108 63 2
    endloop
  endfacet
  facet normal -1 0 0
    outer loop
      vertex 108 2 2
      vertex 108 63 40.2
      vertex 108 63 2
    endloop
  endfacet
  facet normal -1 -0 0
    outer loop
      vertex 108 63 40.2
      vertex 108 2 2
      vertex 108 2 40.2
    endloop
  endfacet
  facet normal 0 1 -0
    outer loop
      vertex 108 2 2
      vertex 2 2 40.2
      vertex 108 2 40.2
    endloop
  endfacet
  facet normal 0 1 0
    outer loop
      vertex 2 2 40.2
      vertex 108 2 2
      vertex 2 2 2
    endloop
  endfacet
  facet normal 0 0 -1
    outer loop
      vertex 0 0 0
      vertex 110 65 0
      vertex 110 0 0
    endloop
  endfacet
  facet normal -0 0 -1
    outer loop
      vertex 110 65 0
      vertex 0 0 0
      vertex 0 65 0
    endloop
  endfacet
  facet normal -0 0 1
    outer loop
      vertex 2 63 2
      vertex 108 2 2
      vertex 108 63 2
    endloop
  endfacet
  facet normal 0 0 1
    outer loop
      vertex 108 2 2
      vertex 2 63 2
      vertex 2 2 2
    endloop
  endfacet
  facet normal -1 0 0
    outer loop
      vertex 0 70 0
      vertex 0 135 2
      vertex 0 135 0
    endloop
  endfacet
  facet normal -1 -0 0
    outer loop
      vertex 0 135 2
      vertex 0 70 0
      vertex 0 70 2
    endloop
  endfacet
  facet normal 1 -0 0
    outer loop
      vertex 110 70 2
      vertex 110 135 0
      vertex 110 135 2
    endloop
  endfacet
  facet normal 1 0 0
    outer loop
      vertex 110 135 0
      vertex 110 70 2
      vertex 110 70 0
    endloop
  endfacet
  facet normal 0 0 -1
    outer loop
      vertex 0 70 0
      vertex 110 135 0
      vertex 110 70 0
    endloop
  endfacet
  facet normal -0 0 -1
    outer loop
      vertex 110 135 0
      vertex 0 70 0
      vertex 0 135 0
    endloop
  endfacet
  facet normal 0 1 -0
    outer loop
      vertex 110 135 0
      vertex 0 135 2
      vertex 110 135 2
    endloop
  endfacet
  facet normal 0 1 0
    outer loop
      vertex 0 135 2
      vertex 110 135 0
      vertex 0 135 0
    endloop
  endfacet
  facet normal 0 0 1
    outer loop
      vertex 108.1 72.1 2
      vertex 110 135 2
      vertex 108.1 133.1 2
    endloop
  endfacet
  facet normal 0 0 1
    outer loop
      vertex 110 135 2
      vertex 2.09999 133.1 2
      vertex 108.1 133.1 2
    endloop
  endfacet
  facet normal 0 0 1
    outer loop
      vertex 2.09999 133.1 2
      vertex 0 135 2
      vertex 2.09999 72.1 2
    endloop
  endfacet
  facet normal -0 0 1
    outer loop
      vertex 0 135 2
      vertex 2.09999 133.1 2
      vertex 110 135 2
    endloop
  endfacet
  facet normal 0 0 1
    outer loop
      vertex 110 135 2
      vertex 108.1 72.1 2
      vertex 110 70 2
    endloop
  endfacet
  facet normal -0 0 1
    outer loop
      vertex 2.09999 72.1 2
      vertex 110 70 2
      vertex 108.1 72.1 2
    endloop
  endfacet
  facet normal 0 0 1
    outer loop
      vertex 2.09999 72.1 2
      vertex 0 70 2
      vertex 110 70 2
    endloop
  endfacet
  facet normal 0 0 1
    outer loop
      vertex 0 70 2
      vertex 2.09999 72.1 2
      vertex 0 135 2
    endloop
  endfacet
  facet normal -0 0 1
    outer loop
      vertex 4 131 2
      vertex 106 74 2
      vertex 106 131 2
    endloop
  endfacet
  facet normal 0 0 1
    outer loop
      vertex 106 74 2
      vertex 4 131 2
      vertex 4 74 2
    endloop
  endfacet
  facet normal 0 -1 0
    outer loop
      vertex 0 70 0
      vertex 110 70 2
      vertex 0 70 2
    endloop
  endfacet
  facet normal 0 -1 -0
    outer loop
      vertex 110 70 2
      vertex 0 70 0
      vertex 110 70 0
    endloop
  endfacet
  facet normal 0 0 1
    outer loop
      vertex 108.1 133.1 15.2
      vertex 106 131 15.2
      vertex 108.1 72.1 15.2
    endloop
  endfacet
  facet normal -0 0 1
    outer loop
      vertex 2.09999 133.1 15.2
      vertex 106 131 15.2
      vertex 108.1 133.1 15.2
    endloop
  endfacet
  facet normal 0 0 1
    outer loop
      vertex 2.09999 72.1 15.2
      vertex 4 131 15.2
      vertex 2.09999 133.1 15.2
    endloop
  endfacet
  facet normal 0 0 1
    outer loop
      vertex 106 131 15.2
      vertex 2.09999 133.1 15.2
      vertex 4 131 15.2
    endloop
  endfacet
  facet normal -0 0 1
    outer loop
      vertex 106 74 15.2
      vertex 108.1 72.1 15.2
      vertex 106 131 15.2
    endloop
  endfacet
  facet normal 0 0 1
    outer loop
      vertex 2.09999 72.1 15.2
      vertex 106 74 15.2
      vertex 4 74 15.2
    endloop
  endfacet
  facet normal 0 0 1
    outer loop
      vertex 106 74 15.2
      vertex 2.09999 72.1 15.2
      vertex 108.1 72.1 15.2
    endloop
  endfacet
  facet normal 0 0 1
    outer loop
      vertex 4 131 15.2
      vertex 2.09999 72.1 15.2
      vertex 4 74 15.2
    endloop
  endfacet
  facet normal 0 1 -0
    outer loop
      vertex 108.1 133.1 2
      vertex 2.09999 133.1 15.2
      vertex 108.1 133.1 15.2
    endloop
  endfacet
  facet normal 0 1 0
    outer loop
      vertex 2.09999 133.1 15.2
      vertex 108.1 133.1 2
      vertex 2.09999 133.1 2
    endloop
  endfacet
  facet normal -1 0 0
    outer loop
      vertex 2.09999 72.1 2
      vertex 2.09999 133.1 15.2
      vertex 2.09999 133.1 2
    endloop
  endfacet
  facet normal -1 -0 0
    outer loop
      vertex 2.09999 133.1 15.2
      vertex 2.09999 72.1 2
      vertex 2.09999 72.1 15.2
    endloop
  endfacet
  facet normal 0 -1 0
    outer loop
      vertex 2.09999 72.1 2
      vertex 108.1 72.1 15.2
      vertex 2.09999 72.1 15.2
    endloop
  endfacet
  facet normal 0 -1 -0
    outer loop
      vertex 108.1 72.1 15.2
      vertex 2.09999 72.1 2
      vertex 108.1 72.1 2
    endloop
  endfacet
  facet normal 1 -0 0
    outer loop
      vertex 108.1 72.1 15.2
      vertex 108.1 133.1 2
      vertex 108.1 133.1 15.2
    endloop
  endfacet
  facet normal 1 0 0
    outer loop
      vertex 108.1 133.1 2
      vertex 108.1 72.1 15.2
      vertex 108.1 72.1 2
    endloop
  endfacet
  facet normal 1 -0 0
    outer loop
      vertex 4 74 15.2
      vertex 4 131 2
      vertex 4 131 15.2
    endloop
  endfacet
  facet normal 1 0 0
    outer loop
      vertex 4 131 2
      vertex 4 74 15.2
      vertex 4 74 2
    endloop
  endfacet
  facet normal 0 -1 0
    outer loop
      vertex 4 131 2
      vertex 106 131 15.2
      vertex 4 131 15.2
    endloop
  endfacet
  facet normal 0 -1 -0
    outer loop
      vertex 106 131 15.2
      vertex 4 131 2
      vertex 106 131 2
    endloop
  endfacet
  facet normal -1 0 0
    outer loop
      vertex 106 74 2
      vertex 106 131 15.2
      vertex 106 131 2
    endloop
  endfacet
  facet normal -1 -0 0
    outer loop
      vertex 106 131 15.2
      vertex 106 74 2
      vertex 106 74 15.2
    endloop
  endfacet
  facet normal 0 1 -0
    outer loop
      vertex 106 74 2
      vertex 4 74 15.2
      vertex 106 74 15.2
    endloop
  endfacet
  facet normal 0 1 0
    outer loop
      vertex 4 74 15.2
      vertex 106 74 2
      vertex 4 74 2
    endloop
  endfacet
endsolid OpenSCAD_Model
