solid OpenSCAD_Model
  facet normal 0 0 -1
    outer loop
      vertex 30 0 0
      vertex 25 5 0
      vertex 30 30 0
    endloop
  endfacet
  facet normal 0 0 -1
    outer loop
      vertex 0 0 0
      vertex 25 5 0
      vertex 30 0 0
    endloop
  endfacet
  facet normal -0 0 -1
    outer loop
      vertex 25 5 0
      vertex 0 0 0
      vertex 0 5 0
    endloop
  endfacet
  facet normal 0 0 -1
    outer loop
      vertex 25 25 0
      vertex 30 30 0
      vertex 25 5 0
    endloop
  endfacet
  facet normal 0 0 -1
    outer loop
      vertex 25 25 0
      vertex -100 30 0
      vertex 30 30 0
    endloop
  endfacet
  facet normal -0 0 -1
    outer loop
      vertex -100 30 0
      vertex -105 25 0
      vertex -100 70 0
    endloop
  endfacet
  facet normal 0 0 -1
    outer loop
      vertex -105 25 0
      vertex -100 30 0
      vertex 25 25 0
    endloop
  endfacet
  facet normal 0 0 -1
    outer loop
      vertex -100 70 0
      vertex -95 75 0
      vertex -95 70 0
    endloop
  endfacet
  facet normal 0 0 -1
    outer loop
      vertex -100 70 0
      vertex -105 75 0
      vertex -95 75 0
    endloop
  endfacet
  facet normal 0 0 -1
    outer loop
      vertex -105 75 0
      vertex -100 70 0
      vertex -105 25 0
    endloop
  endfacet
  facet normal 0 0 1
    outer loop
      vertex -95 75 100
      vertex -100 70 100
      vertex -95 70 100
    endloop
  endfacet
  facet normal 0 0 1
    outer loop
      vertex -100 70 100
      vertex -105 75 100
      vertex -100 30 100
    endloop
  endfacet
  facet normal -0 0 1
    outer loop
      vertex -105 75 100
      vertex -100 70 100
      vertex -95 75 100
    endloop
  endfacet
  facet normal 0 0 1
    outer loop
      vertex 30 30 100
      vertex 25 25 100
      vertex 30 0 100
    endloop
  endfacet
  facet normal -0 0 1
    outer loop
      vertex -100 30 100
      vertex 25 25 100
      vertex 30 30 100
    endloop
  endfacet
  facet normal 0 0 1
    outer loop
      vertex -100 30 100
      vertex -105 25 100
      vertex 25 25 100
    endloop
  endfacet
  facet normal 0 0 1
    outer loop
      vertex -105 25 100
      vertex -100 30 100
      vertex -105 75 100
    endloop
  endfacet
  facet normal -0 0 1
    outer loop
      vertex 25 5 100
      vertex 30 0 100
      vertex 25 25 100
    endloop
  endfacet
  facet normal 0 0 1
    outer loop
      vertex 0 0 100
      vertex 25 5 100
      vertex 0 5 100
    endloop
  endfacet
  facet normal 0 0 1
    outer loop
      vertex 25 5 100
      vertex 0 0 100
      vertex 30 0 100
    endloop
  endfacet
  facet normal 0 1 0
    outer loop
      vertex 30 30 100
      vertex 20 30 90
      vertex -100 30 100
    endloop
  endfacet
  facet normal 0 1 0
    outer loop
      vertex 30 30 100
      vertex 20 30 10
      vertex 20 30 90
    endloop
  endfacet
  facet normal 0 1 0
    outer loop
      vertex -100 30 0
      vertex 20 30 10
      vertex 30 30 0
    endloop
  endfacet
  facet normal 0 1 -0
    outer loop
      vertex 30 30 0
      vertex 20 30 10
      vertex 30 30 100
    endloop
  endfacet
  facet normal 0 1 -0
    outer loop
      vertex -95 30 90
      vertex -100 30 100
      vertex 20 30 90
    endloop
  endfacet
  facet normal 0 1 -0
    outer loop
      vertex -95 30 10
      vertex -100 30 100
      vertex -95 30 90
    endloop
  endfacet
  facet normal 0 1 0
    outer loop
      vertex -95 30 10
      vertex -100 30 0
      vertex -100 30 100
    endloop
  endfacet
  facet normal 0 1 0
    outer loop
      vertex 20 30 10
      vertex -100 30 0
      vertex -95 30 10
    endloop
  endfacet
  facet normal 1 -0 0
    outer loop
      vertex -100 30 100
      vertex -100 70 0
      vertex -100 70 100
    endloop
  endfacet
  facet normal 1 0 0
    outer loop
      vertex -100 70 0
      vertex -100 30 100
      vertex -100 30 0
    endloop
  endfacet
  facet normal 0 -1 0
    outer loop
      vertex -100 70 100
      vertex -95 70 90
      vertex -95 70 100
    endloop
  endfacet
  facet normal 0 -1 0
    outer loop
      vertex -100 70 100
      vertex -95 70 10
      vertex -95 70 90
    endloop
  endfacet
  facet normal 0 -1 0
    outer loop
      vertex -100 70 0
      vertex -95 70 10
      vertex -100 70 100
    endloop
  endfacet
  facet normal 0 -1 -0
    outer loop
      vertex -95 70 10
      vertex -100 70 0
      vertex -95 70 0
    endloop
  endfacet
  facet normal 1 -0 0
    outer loop
      vertex -95 70 10
      vertex -95 75 0
      vertex -95 75 10
    endloop
  endfacet
  facet normal 1 0 0
    outer loop
      vertex -95 75 0
      vertex -95 70 10
      vertex -95 70 0
    endloop
  endfacet
  facet normal 1 -0 0
    outer loop
      vertex -95 70 100
      vertex -95 75 90
      vertex -95 75 100
    endloop
  endfacet
  facet normal 1 0 0
    outer loop
      vertex -95 75 90
      vertex -95 70 100
      vertex -95 70 90
    endloop
  endfacet
  facet normal 1 -0 0
    outer loop
      vertex -95 70 90
      vertex -95 75 10
      vertex -95 75 90
    endloop
  endfacet
  facet normal 1 0 0
    outer loop
      vertex -95 75 10
      vertex -95 70 90
      vertex -95 70 10
    endloop
  endfacet
  facet normal 1 -0 0
    outer loop
      vertex -95 25 90
      vertex -95 30 10
      vertex -95 30 90
    endloop
  endfacet
  facet normal 1 0 0
    outer loop
      vertex -95 30 10
      vertex -95 25 90
      vertex -95 25 10
    endloop
  endfacet
  facet normal 0 1 -0
    outer loop
      vertex -95 75 90
      vertex -105 75 100
      vertex -95 75 100
    endloop
  endfacet
  facet normal 0 1 -0
    outer loop
      vertex -95 75 10
      vertex -105 75 100
      vertex -95 75 90
    endloop
  endfacet
  facet normal 0 1 0
    outer loop
      vertex -105 75 0
      vertex -95 75 10
      vertex -95 75 0
    endloop
  endfacet
  facet normal 0 1 0
    outer loop
      vertex -95 75 10
      vertex -105 75 0
      vertex -105 75 100
    endloop
  endfacet
  facet normal -1 0 0
    outer loop
      vertex -105 25 0
      vertex -105 75 100
      vertex -105 75 0
    endloop
  endfacet
  facet normal -1 -0 0
    outer loop
      vertex -105 75 100
      vertex -105 25 0
      vertex -105 25 100
    endloop
  endfacet
  facet normal 0 -1 0
    outer loop
      vertex -105 25 100
      vertex -95 25 90
      vertex 25 25 100
    endloop
  endfacet
  facet normal 0 -1 0
    outer loop
      vertex -105 25 100
      vertex -95 25 10
      vertex -95 25 90
    endloop
  endfacet
  facet normal 0 -1 0
    outer loop
      vertex 25 25 0
      vertex -95 25 10
      vertex -105 25 0
    endloop
  endfacet
  facet normal 0 -1 0
    outer loop
      vertex -105 25 0
      vertex -95 25 10
      vertex -105 25 100
    endloop
  endfacet
  facet normal 0 -1 0
    outer loop
      vertex 20 25 90
      vertex 25 25 100
      vertex -95 25 90
    endloop
  endfacet
  facet normal 0 -1 0
    outer loop
      vertex 20 25 10
      vertex 25 25 100
      vertex 20 25 90
    endloop
  endfacet
  facet normal 0 -1 0
    outer loop
      vertex 20 25 10
      vertex 25 25 0
      vertex 25 25 100
    endloop
  endfacet
  facet normal 0 -1 0
    outer loop
      vertex -95 25 10
      vertex 25 25 0
      vertex 20 25 10
    endloop
  endfacet
  facet normal -1 0 0
    outer loop
      vertex 25 5 0
      vertex 25 25 100
      vertex 25 25 0
    endloop
  endfacet
  facet normal -1 -0 0
    outer loop
      vertex 25 25 100
      vertex 25 5 0
      vertex 25 5 100
    endloop
  endfacet
  facet normal 0 1 0
    outer loop
      vertex 25 5 100
      vertex 20 5 90
      vertex 0 5 100
    endloop
  endfacet
  facet normal 0 1 0
    outer loop
      vertex 25 5 100
      vertex 20 5 10
      vertex 20 5 90
    endloop
  endfacet
  facet normal 0 1 -0
    outer loop
      vertex 25 5 0
      vertex 20 5 10
      vertex 25 5 100
    endloop
  endfacet
  facet normal 0 1 0
    outer loop
      vertex 0 5 0
      vertex 20 5 10
      vertex 25 5 0
    endloop
  endfacet
  facet normal 0 1 0
    outer loop
      vertex 20 5 10
      vertex 0 5 0
      vertex 0 5 10
    endloop
  endfacet
  facet normal 0 1 0
    outer loop
      vertex 0 5 100
      vertex 20 5 90
      vertex 0 5 90
    endloop
  endfacet
  facet normal -1 0 0
    outer loop
      vertex 0 0 0
      vertex 0 5 10
      vertex 0 5 0
    endloop
  endfacet
  facet normal -1 -0 0
    outer loop
      vertex 0 5 10
      vertex 0 0 0
      vertex 0 0 10
    endloop
  endfacet
  facet normal -1 0 0
    outer loop
      vertex 0 0 90
      vertex 0 5 100
      vertex 0 5 90
    endloop
  endfacet
  facet normal -1 -0 0
    outer loop
      vertex 0 5 100
      vertex 0 0 90
      vertex 0 0 100
    endloop
  endfacet
  facet normal 0 -1 0
    outer loop
      vertex 0 0 10
      vertex 0 0 0
      vertex 20 0 10
    endloop
  endfacet
  facet normal 0 -1 0
    outer loop
      vertex 20 0 90
      vertex 0 0 100
      vertex 0 0 90
    endloop
  endfacet
  facet normal 0 -1 0
    outer loop
      vertex 0 0 100
      vertex 20 0 90
      vertex 30 0 100
    endloop
  endfacet
  facet normal 0 -1 0
    outer loop
      vertex 20 0 10
      vertex 30 0 100
      vertex 20 0 90
    endloop
  endfacet
  facet normal 0 -1 0
    outer loop
      vertex 20 0 10
      vertex 30 0 0
      vertex 30 0 100
    endloop
  endfacet
  facet normal 0 -1 0
    outer loop
      vertex 30 0 0
      vertex 20 0 10
      vertex 0 0 0
    endloop
  endfacet
  facet normal 1 -0 0
    outer loop
      vertex 30 0 100
      vertex 30 30 0
      vertex 30 30 100
    endloop
  endfacet
  facet normal 1 0 0
    outer loop
      vertex 30 30 0
      vertex 30 0 100
      vertex 30 0 0
    endloop
  endfacet
  facet normal 0 0 -1
    outer loop
      vertex 0 0 90
      vertex 20 5 90
      vertex 20 0 90
    endloop
  endfacet
  facet normal -0 0 -1
    outer loop
      vertex 20 5 90
      vertex 0 0 90
      vertex 0 5 90
    endloop
  endfacet
  facet normal 0 0 -1
    outer loop
      vertex -95 25 90
      vertex 20 30 90
      vertex 20 25 90
    endloop
  endfacet
  facet normal -0 0 -1
    outer loop
      vertex 20 30 90
      vertex -95 25 90
      vertex -95 30 90
    endloop
  endfacet
  facet normal -1 0 0
    outer loop
      vertex 20 25 10
      vertex 20 30 90
      vertex 20 30 10
    endloop
  endfacet
  facet normal -1 -0 0
    outer loop
      vertex 20 30 90
      vertex 20 25 10
      vertex 20 25 90
    endloop
  endfacet
  facet normal -1 0 0
    outer loop
      vertex 20 0 10
      vertex 20 5 90
      vertex 20 5 10
    endloop
  endfacet
  facet normal -1 -0 0
    outer loop
      vertex 20 5 90
      vertex 20 0 10
      vertex 20 0 90
    endloop
  endfacet
  facet normal -0 0 1
    outer loop
      vertex 0 5 10
      vertex 20 0 10
      vertex 20 5 10
    endloop
  endfacet
  facet normal 0 0 1
    outer loop
      vertex 20 0 10
      vertex 0 5 10
      vertex 0 0 10
    endloop
  endfacet
  facet normal -0 0 1
    outer loop
      vertex -95 30 10
      vertex 20 25 10
      vertex 20 30 10
    endloop
  endfacet
  facet normal 0 0 1
    outer loop
      vertex 20 25 10
      vertex -95 30 10
      vertex -95 25 10
    endloop
  endfacet
endsolid OpenSCAD_Model
